<svg xmlns="http://www.w3.org/2000/svg" width="1640" height="1540" viewBox="0 0 1640 1540" font-family="Helvetica, Arial, sans-serif">
  <rect width="1640" height="1540" fill="#ffffff"/>

  <!-- ============ BAND 1: CLIENT LAYER ============ -->
  <rect x="40" y="40" width="1560" height="200" rx="16" fill="#F4F8F8" stroke="#DCE7E7" stroke-width="2"/>
  <text x="64" y="78" font-size="24" font-weight="bold" fill="#204C4C" letter-spacing="2">CLIENT LAYER</text>

  <!-- 4 client boxes -->
  <g>
    <rect x="64" y="100" width="363" height="115" rx="12" fill="#ffffff" stroke="#204C4C" stroke-width="1.5"/>
    <text x="245" y="150" font-size="30" font-weight="bold" fill="#1a1a1a" text-anchor="middle">Student app</text>
    <text x="245" y="184" font-size="22" fill="#5C7070" text-anchor="middle">iOS &#183; Android (Capacitor)</text>
  </g>
  <g>
    <rect x="447" y="100" width="363" height="115" rx="12" fill="#ffffff" stroke="#204C4C" stroke-width="1.5"/>
    <text x="628" y="150" font-size="30" font-weight="bold" fill="#1a1a1a" text-anchor="middle">Employee app</text>
    <text x="628" y="184" font-size="22" fill="#5C7070" text-anchor="middle">iOS &#183; Android (Capacitor)</text>
  </g>
  <g>
    <rect x="830" y="100" width="363" height="115" rx="12" fill="#ffffff" stroke="#204C4C" stroke-width="1.5"/>
    <text x="1011" y="150" font-size="30" font-weight="bold" fill="#1a1a1a" text-anchor="middle">Admin dashboards</text>
    <text x="1011" y="184" font-size="22" fill="#5C7070" text-anchor="middle">University &#183; Pro (React)</text>
  </g>
  <g>
    <rect x="1213" y="100" width="363" height="115" rx="12" fill="#ffffff" stroke="#204C4C" stroke-width="1.5"/>
    <text x="1394" y="150" font-size="30" font-weight="bold" fill="#1a1a1a" text-anchor="middle">Content &amp; Insight hubs</text>
    <text x="1394" y="184" font-size="22" fill="#5C7070" text-anchor="middle">Next.js</text>
  </g>

  <!-- arrow 1 -> 2 -->
  <line x1="820" y1="240" x2="820" y2="282" stroke="#9AAEAE" stroke-width="3"/>
  <polygon points="820,292 812,278 828,278" fill="#9AAEAE"/>

  <!-- ============ BAND 2: EDGE & API ============ -->
  <rect x="40" y="292" width="1560" height="160" rx="16" fill="#F4F8F8" stroke="#DCE7E7" stroke-width="2"/>
  <text x="64" y="330" font-size="24" font-weight="bold" fill="#204C4C" letter-spacing="2">EDGE &amp; API</text>
  <g>
    <rect x="64" y="352" width="746" height="80" rx="12" fill="#ffffff" stroke="#204C4C" stroke-width="1.5"/>
    <text x="437" y="388" font-size="29" font-weight="bold" fill="#1a1a1a" text-anchor="middle">Vercel</text>
    <text x="437" y="416" font-size="21" fill="#5C7070" text-anchor="middle">Serverless API &#183; global CDN &#183; TLS 1.3</text>
  </g>
  <g>
    <rect x="830" y="352" width="746" height="80" rx="12" fill="#ffffff" stroke="#204C4C" stroke-width="1.5"/>
    <text x="1203" y="388" font-size="29" font-weight="bold" fill="#1a1a1a" text-anchor="middle">AWS Cognito</text>
    <text x="1203" y="416" font-size="21" fill="#5C7070" text-anchor="middle">RS256 JWT &#183; MFA &#183; UK region</text>
  </g>

  <!-- arrow 2 -> 3 -->
  <line x1="820" y1="452" x2="820" y2="494" stroke="#9AAEAE" stroke-width="3"/>
  <polygon points="820,504 812,490 828,490" fill="#9AAEAE"/>

  <!-- ============ BAND 3: ASSESSMENT PIPELINE ============ -->
  <rect x="40" y="504" width="1560" height="624" rx="16" fill="#F4F8F8" stroke="#DCE7E7" stroke-width="2"/>
  <text x="64" y="542" font-size="24" font-weight="bold" fill="#204C4C" letter-spacing="2">DAILY CHECK-IN  &#8594;  MIND MEASURE SCORE</text>

  <!-- Jodie -->
  <g>
    <rect x="420" y="566" width="800" height="92" rx="12" fill="#204C4C"/>
    <text x="820" y="606" font-size="30" font-weight="bold" fill="#ffffff" text-anchor="middle">Jodie: conversational voice AI</text>
    <text x="820" y="638" font-size="21" fill="#CADADA" text-anchor="middle">ElevenLabs &#183; a natural two-minute conversation</text>
  </g>

  <!-- split arrows to 3 analyses -->
  <line x1="820" y1="658" x2="820" y2="688" stroke="#9AAEAE" stroke-width="3"/>
  <line x1="306" y1="688" x2="1334" y2="688" stroke="#9AAEAE" stroke-width="3"/>
  <line x1="306" y1="688" x2="306" y2="716" stroke="#9AAEAE" stroke-width="3"/>
  <polygon points="306,726 298,712 314,712" fill="#9AAEAE"/>
  <line x1="820" y1="688" x2="820" y2="716" stroke="#9AAEAE" stroke-width="3"/>
  <polygon points="820,726 812,712 828,712" fill="#9AAEAE"/>
  <line x1="1334" y1="688" x2="1334" y2="716" stroke="#9AAEAE" stroke-width="3"/>
  <polygon points="1334,726 1326,712 1342,712" fill="#9AAEAE"/>

  <!-- 3 analysis boxes -->
  <g>
    <rect x="64" y="726" width="484" height="150" rx="12" fill="#ffffff" stroke="#204C4C" stroke-width="1.5"/>
    <rect x="430" y="742" width="100" height="40" rx="20" fill="#FF6B6B"/>
    <text x="480" y="770" font-size="24" font-weight="bold" fill="#ffffff" text-anchor="middle">70%</text>
    <text x="306" y="792" font-size="29" font-weight="bold" fill="#1a1a1a" text-anchor="middle">Text analysis</text>
    <text x="306" y="828" font-size="21" fill="#5C7070" text-anchor="middle">AWS Bedrock</text>
    <text x="306" y="856" font-size="21" fill="#5C7070" text-anchor="middle">Claude 3.7 Sonnet</text>
  </g>
  <g>
    <rect x="578" y="726" width="484" height="150" rx="12" fill="#ffffff" stroke="#204C4C" stroke-width="1.5"/>
    <rect x="944" y="742" width="100" height="40" rx="20" fill="#FF6B6B"/>
    <text x="994" y="770" font-size="24" font-weight="bold" fill="#ffffff" text-anchor="middle">15%</text>
    <text x="820" y="792" font-size="29" font-weight="bold" fill="#1a1a1a" text-anchor="middle">Voice analysis</text>
    <text x="820" y="828" font-size="21" fill="#5C7070" text-anchor="middle">On-device acoustic</text>
    <text x="820" y="856" font-size="21" fill="#5C7070" text-anchor="middle">features (prosody)</text>
  </g>
  <g>
    <rect x="1092" y="726" width="484" height="150" rx="12" fill="#ffffff" stroke="#204C4C" stroke-width="1.5"/>
    <rect x="1458" y="742" width="100" height="40" rx="20" fill="#FF6B6B"/>
    <text x="1508" y="770" font-size="24" font-weight="bold" fill="#ffffff" text-anchor="middle">15%</text>
    <text x="1334" y="792" font-size="29" font-weight="bold" fill="#1a1a1a" text-anchor="middle">Facial analysis</text>
    <text x="1334" y="828" font-size="21" fill="#5C7070" text-anchor="middle">AWS Rekognition</text>
    <text x="1334" y="856" font-size="21" fill="#5C7070" text-anchor="middle">(when camera on)</text>
  </g>

  <!-- converge arrows to fusion -->
  <line x1="306" y1="876" x2="306" y2="904" stroke="#9AAEAE" stroke-width="3"/>
  <line x1="1334" y1="876" x2="1334" y2="904" stroke="#9AAEAE" stroke-width="3"/>
  <line x1="306" y1="904" x2="1334" y2="904" stroke="#9AAEAE" stroke-width="3"/>
  <line x1="820" y1="876" x2="820" y2="932" stroke="#9AAEAE" stroke-width="3"/>
  <line x1="820" y1="904" x2="820" y2="904" stroke="#9AAEAE" stroke-width="3"/>
  <polygon points="820,942 812,928 828,928" fill="#9AAEAE"/>

  <!-- Fusion -->
  <g>
    <rect x="370" y="942" width="900" height="78" rx="12" fill="#ffffff" stroke="#204C4C" stroke-width="2"/>
    <text x="820" y="978" font-size="29" font-weight="bold" fill="#1a1a1a" text-anchor="middle">Fusion engine</text>
    <text x="820" y="1006" font-size="21" fill="#5C7070" text-anchor="middle">Weighted multimodal scoring &#183; graceful degradation</text>
  </g>

  <!-- arrow to score -->
  <line x1="820" y1="1020" x2="820" y2="1046" stroke="#9AAEAE" stroke-width="3"/>
  <polygon points="820,1056 812,1042 828,1042" fill="#9AAEAE"/>

  <!-- Score -->
  <g>
    <rect x="470" y="1056" width="700" height="56" rx="28" fill="#FF6B6B"/>
    <text x="820" y="1094" font-size="29" font-weight="bold" fill="#ffffff" text-anchor="middle">Mind Measure Score  0 to 100</text>
  </g>

  <!-- arrow 3 -> 4 -->
  <line x1="820" y1="1128" x2="820" y2="1162" stroke="#9AAEAE" stroke-width="3"/>
  <polygon points="820,1172 812,1158 828,1158" fill="#9AAEAE"/>

  <!-- ============ BAND 4: DATA & STORAGE ============ -->
  <rect x="40" y="1172" width="1560" height="170" rx="16" fill="#F4F8F8" stroke="#DCE7E7" stroke-width="2"/>
  <text x="64" y="1210" font-size="24" font-weight="bold" fill="#204C4C" letter-spacing="2">DATA &amp; STORAGE</text>
  <g>
    <rect x="64" y="1232" width="746" height="92" rx="12" fill="#ffffff" stroke="#204C4C" stroke-width="1.5"/>
    <text x="437" y="1272" font-size="29" font-weight="bold" fill="#1a1a1a" text-anchor="middle">Aurora Serverless v2</text>
    <text x="437" y="1302" font-size="21" fill="#5C7070" text-anchor="middle">PostgreSQL &#183; encrypted at rest &#183; auto-scaling</text>
  </g>
  <g>
    <rect x="830" y="1232" width="746" height="92" rx="12" fill="#ffffff" stroke="#204C4C" stroke-width="1.5"/>
    <text x="1203" y="1272" font-size="29" font-weight="bold" fill="#1a1a1a" text-anchor="middle">Amazon S3</text>
    <text x="1203" y="1302" font-size="21" fill="#5C7070" text-anchor="middle">Encrypted media &#183; audio deleted within 24h</text>
  </g>

  <!-- ============ FOOTER: CROSS-CUTTING ============ -->
  <rect x="40" y="1382" width="1560" height="118" rx="16" fill="#204C4C"/>
  <text x="820" y="1432" font-size="24" font-weight="bold" fill="#ffffff" text-anchor="middle">Cross-cutting: AWS KMS &#183; Secrets Manager &#183; CloudWatch &#183; CloudTrail &#183; Sentry &#183; WAF</text>
  <text x="820" y="1470" font-size="22" fill="#CADADA" text-anchor="middle">All services run in AWS eu-west-2 (London). UK data residency end to end.</text>
</svg>
